<svg width="40" height="40" viewBox="0 0 40 40" fill="none" xmlns="http://www.w3.org/2000/svg">
<g clip-path="url(#clip0_0_1608)">
<path d="M16.3112 16.4556C14.8251 16.4556 13.3725 16.0148 12.1371 15.1889C10.9016 14.3631 9.93891 13.1894 9.37074 11.8163C8.80257 10.4431 8.65447 8.93234 8.94519 7.47503C9.23591 6.01771 9.95238 4.67938 11.0039 3.62938C12.0555 2.57937 13.3949 1.86489 14.8526 1.57632C16.3104 1.28776 17.821 1.43809 19.1932 2.0083C20.5655 2.5785 21.7378 3.54295 22.5618 4.7796C23.3858 6.01626 23.8245 7.46955 23.8223 8.95557C23.8164 10.9448 23.0228 12.8507 21.6152 14.2563C20.2075 15.6619 18.3004 16.4526 16.3112 16.4556ZM16.3112 3.66669C15.2651 3.66669 14.2426 3.97687 13.3728 4.55802C12.5031 5.13918 11.8252 5.96519 11.4249 6.9316C11.0246 7.89802 10.9198 8.96144 11.1239 9.98739C11.328 11.0133 11.8317 11.9557 12.5713 12.6954C13.311 13.435 14.2534 13.9388 15.2793 14.1428C16.3053 14.3469 17.3687 14.2422 18.3351 13.8419C19.3015 13.4416 20.1276 12.7637 20.7087 11.8939C21.2899 11.0242 21.6 10.0016 21.6 8.95557C21.6 7.55287 21.0428 6.20762 20.051 5.21577C19.0591 4.22391 17.7139 3.66669 16.3112 3.66669Z" fill="white"/>
<path d="M18.2444 35.1999C18.0016 34.957 17.8142 34.6643 17.6953 34.3421C17.5764 34.0199 17.5287 33.6757 17.5555 33.3332H4.44439V26.911C6.01941 25.2294 7.93022 23.8975 10.053 23.0017C12.1757 22.1059 14.463 21.6662 16.7666 21.711H17.5666C17.5156 21.3385 17.5512 20.9592 17.6707 20.6027C17.7902 20.2462 17.9903 19.922 18.2555 19.6555L18.3888 19.5332C17.8666 19.5332 17.2777 19.4666 16.7666 19.4666C14.0559 19.4022 11.3649 19.941 8.88792 21.044C6.41097 22.147 4.21009 23.7867 2.44439 25.8444C2.30014 26.0367 2.22217 26.2706 2.22217 26.511V33.3332C2.22217 33.9226 2.45629 34.4878 2.87304 34.9046C3.28979 35.3213 3.85502 35.5555 4.44439 35.5555H18.5555L18.2444 35.1999Z" fill="white"/>
<path d="M37.4221 25.9111L35.1999 25.2333C35.0411 24.6897 34.8251 24.1646 34.5555 23.6666L35.6666 21.5999C35.7027 21.5173 35.7114 21.4252 35.6914 21.3372C35.6714 21.2492 35.6238 21.17 35.5555 21.1111L33.9444 19.4999C33.8834 19.434 33.8021 19.3904 33.7134 19.3763C33.6247 19.3622 33.5339 19.3784 33.4555 19.4222L31.411 20.5333C30.9082 20.2491 30.3753 20.0217 29.8221 19.8555L29.1444 17.6333C29.1156 17.5515 29.061 17.4812 28.9889 17.4331C28.9167 17.3851 28.8309 17.3617 28.7444 17.3666H26.4666C26.3791 17.3656 26.2937 17.3933 26.2234 17.4455C26.1532 17.4977 26.102 17.5714 26.0777 17.6555L25.3999 19.8777C24.8434 20.0396 24.3067 20.2632 23.7999 20.5444L21.7777 19.4333C21.701 19.3903 21.612 19.3746 21.5252 19.3888C21.4385 19.4029 21.359 19.446 21.2999 19.5111L19.6555 21.1111C19.5945 21.1753 19.5552 21.257 19.5433 21.3447C19.5313 21.4325 19.5472 21.5218 19.5888 21.5999L20.6999 23.6222C20.4063 24.1231 20.1714 24.6563 19.9999 25.2111L17.7777 25.8777C17.6936 25.902 17.6199 25.9532 17.5677 26.0235C17.5155 26.0937 17.4878 26.1791 17.4888 26.2666V28.5444C17.4954 28.6246 17.5267 28.7009 17.5784 28.7626C17.6302 28.8243 17.6998 28.8684 17.7777 28.8888L19.9999 29.5666C20.1641 30.1117 20.3877 30.637 20.6666 31.1333L19.5555 33.2555C19.5131 33.3315 19.4966 33.4193 19.5087 33.5056C19.5207 33.5918 19.5605 33.6717 19.6221 33.7333L21.2332 35.3444C21.2962 35.4072 21.3773 35.4485 21.4651 35.4624C21.5529 35.4764 21.6428 35.4623 21.7221 35.4222L23.7999 34.3111C24.294 34.5777 24.8156 34.79 25.3555 34.9444L26.0221 37.1666C26.0495 37.2489 26.1014 37.3207 26.171 37.3724C26.2406 37.4241 26.3244 37.4531 26.411 37.4555H28.6888C28.7759 37.4547 28.8604 37.4263 28.9303 37.3744C29.0002 37.3225 29.0518 37.2497 29.0777 37.1666L29.7555 34.8888C30.2877 34.733 30.8017 34.5207 31.2888 34.2555L33.3888 35.3666C33.466 35.4076 33.5545 35.4222 33.6408 35.4082C33.7271 35.3941 33.8064 35.3522 33.8666 35.2888L35.5555 33.7777C35.6009 33.7125 35.6252 33.635 35.6252 33.5555C35.6252 33.476 35.6009 33.3985 35.5555 33.3333L34.4444 31.2444C34.7141 30.7542 34.9302 30.2364 35.0888 29.6999L37.311 29.0222C37.3951 28.9979 37.4689 28.9467 37.521 28.8764C37.5732 28.8062 37.6009 28.7208 37.5999 28.6333V26.2999C37.6101 26.2249 37.5988 26.1486 37.5673 26.0798C37.5359 26.0109 37.4855 25.9524 37.4221 25.9111ZM27.611 31.1111C26.8761 31.1133 26.1571 30.8972 25.5451 30.4902C24.9331 30.0833 24.4557 29.5038 24.1734 28.8253C23.8912 28.1467 23.8167 27.3996 23.9596 26.6787C24.1024 25.9578 24.4561 25.2955 24.9758 24.7758C25.4955 24.2561 26.1577 23.9025 26.8786 23.7596C27.5996 23.6168 28.3467 23.6912 29.0252 23.9735C29.7038 24.2557 30.2833 24.7331 30.6902 25.3451C31.0972 25.9571 31.3132 26.6761 31.311 27.4111C31.3081 28.3915 30.9173 29.3309 30.2241 30.0241C29.5308 30.7174 28.5914 31.1081 27.611 31.1111Z" fill="white"/>
</g>
<defs>
<clipPath id="clip0_0_1608">
<rect width="40" height="40" fill="white"/>
</clipPath>
</defs>
</svg>
