<svg width="40" height="40" viewBox="0 0 40 40" fill="none" xmlns="http://www.w3.org/2000/svg">
<path d="M6.66675 35V8.33333C6.66675 7.41667 6.99314 6.63194 7.64591 5.97917C8.29869 5.32639 9.08341 5 10.0001 5H30.0001C30.9167 5 31.7015 5.32639 32.3542 5.97917C33.007 6.63194 33.3334 7.41667 33.3334 8.33333V35H30.0001V31.6667H10.0001V35H6.66675ZM10.0001 18.3333H18.3334V8.33333H10.0001V18.3333ZM21.6667 11.6667H30.0001V8.33333H21.6667V11.6667ZM21.6667 18.3333H30.0001V15H21.6667V18.3333ZM16.6667 26.6667H23.3334V23.3333H16.6667V26.6667ZM10.0001 21.6667V28.3333H30.0001V21.6667H10.0001Z" fill="white"/>
</svg>
