<svg width="25" height="24" viewBox="0 0 25 24" fill="none" xmlns="http://www.w3.org/2000/svg">
<path fill-rule="evenodd" clip-rule="evenodd" d="M19.7381 19.0699C16.682 22.1263 12.1565 22.7867 8.45316 21.074C7.90645 20.8539 7.45823 20.676 7.03212 20.676C5.84524 20.683 4.36791 21.8339 3.60011 21.067C2.8323 20.2991 3.98401 18.8206 3.98401 17.6266C3.98401 17.2004 3.81316 16.7602 3.59307 16.2124C1.87958 12.5096 2.54086 7.98269 5.59701 4.92721C9.49835 1.02443 15.8368 1.02443 19.7381 4.9262C23.6465 8.83501 23.6394 15.1681 19.7381 19.0699Z" stroke="#E6ECF3" stroke-width="1.5" stroke-linecap="round" stroke-linejoin="round"/>
<path d="M16.6061 12.4131H16.6151" stroke="#E6ECF3" stroke-width="2" stroke-linecap="round" stroke-linejoin="round"/>
<path d="M12.5971 12.4131H12.6061" stroke="#E6ECF3" stroke-width="2" stroke-linecap="round" stroke-linejoin="round"/>
<path d="M8.58803 12.4131H8.59703" stroke="#E6ECF3" stroke-width="2" stroke-linecap="round" stroke-linejoin="round"/>
</svg>
