<svg width="32" height="33" viewBox="0 0 32 33" fill="none" xmlns="http://www.w3.org/2000/svg">
<path d="M9.51004 21.4415C9.55381 21.5998 9.62833 21.7478 9.72933 21.8773C9.83033 22.0067 9.95583 22.115 10.0987 22.1959C10.2415 22.2769 10.3989 22.3289 10.5619 22.349C10.7248 22.3691 10.8901 22.3569 11.0484 22.3132C11.2066 22.2694 11.3547 22.1949 11.4841 22.0939C11.6136 21.9929 11.7219 21.8674 11.8028 21.7245C11.8837 21.5817 11.9358 21.4243 11.9559 21.2613C11.976 21.0984 11.9638 20.9331 11.92 20.7748L9.51004 21.4415ZM2.33337 3.87484C2.17451 3.82844 2.00801 3.81405 1.84354 3.8325C1.67907 3.85095 1.5199 3.90188 1.37527 3.98234C1.23063 4.06279 1.10342 4.17117 1.001 4.30117C0.898584 4.43118 0.823003 4.58023 0.778644 4.73968C0.734286 4.89913 0.722033 5.0658 0.742596 5.23002C0.76316 5.39424 0.81613 5.55274 0.898434 5.69633C0.980738 5.83991 1.09074 5.96573 1.22205 6.06647C1.35336 6.16721 1.50337 6.24087 1.66337 6.28318L2.33337 3.87484ZM30.6467 22.2082C30.8095 22.1705 30.963 22.1007 31.0983 22.0027C31.2336 21.9047 31.3479 21.7806 31.4344 21.6376C31.5209 21.4947 31.5779 21.3359 31.602 21.1706C31.6261 21.0053 31.6168 20.8369 31.5747 20.6752C31.5326 20.5135 31.4585 20.3619 31.3568 20.2294C31.2551 20.0969 31.1279 19.9861 30.9827 19.9035C30.8374 19.821 30.6771 19.7684 30.5112 19.7489C30.3453 19.7294 30.1771 19.7433 30.0167 19.7898L30.6467 22.2082ZM13.995 25.2648C14.5117 27.1315 13.3784 29.1032 11.3717 29.6248L12 32.0432C15.295 31.1882 17.3084 27.8732 16.405 24.5982L13.995 25.2648ZM11.3717 29.6248C9.35171 30.1498 7.32504 28.9765 6.80504 27.0932L4.39504 27.7598C5.29504 31.0182 8.71837 32.8965 12 32.0432L11.3717 29.6248ZM6.80504 27.0932C6.28837 25.2265 7.42171 23.2548 9.42837 22.7332L8.80004 20.3165C5.50504 21.1715 3.49004 24.4848 4.39504 27.7598L6.80504 27.0932ZM9.42837 22.7332C11.4484 22.2082 13.475 23.3815 13.995 25.2648L16.405 24.5982C15.505 21.3398 12.0817 19.4615 8.80004 20.3148L9.42837 22.7332ZM11.92 20.7748L8.33337 7.79151L5.92337 8.45818L9.51004 21.4415L11.92 20.7748ZM5.17337 4.66151L2.33337 3.87484L1.66337 6.28318L4.50504 7.07151L5.17337 4.66151ZM8.33337 7.79151C8.12147 7.04148 7.71909 6.35906 7.16535 5.81058C6.61162 5.26211 5.92539 4.86625 5.17337 4.66151L4.50837 7.07151C5.21671 7.26818 5.74337 7.80651 5.92337 8.45818L8.33337 7.79151ZM15.5167 26.1415L30.6467 22.2082L30.0184 19.7898L14.8867 23.7232L15.5167 26.1415Z" fill="white"/>
<path d="M12.9417 10.5499C12.1334 7.62491 11.7301 6.16158 12.4167 5.00991C13.1017 3.85658 14.6101 3.46491 17.6267 2.67991L20.8267 1.84991C23.8434 1.06658 25.3517 0.673245 26.5401 1.33824C27.7284 2.00491 28.1334 3.46658 28.9401 6.39324L29.7984 9.49658C30.6067 12.4216 31.0117 13.8849 30.3251 15.0382C29.6384 16.1899 28.1301 16.5832 25.1134 17.3666L21.9134 18.1982C18.8967 18.9816 17.3884 19.3732 16.2001 18.7082C15.0117 18.0416 14.6084 16.5799 13.8001 13.6549L12.9417 10.5499Z" stroke="white" stroke-width="1.5"/>
</svg>
