<svg width="20" height="17" viewBox="0 0 20 17" fill="none" xmlns="http://www.w3.org/2000/svg">
<path fill-rule="evenodd" clip-rule="evenodd" d="M5.80958 1.19043C6.38817 1.19043 6.8572 1.65946 6.8572 2.23805V4.33329C6.8572 4.91187 6.38817 5.38091 5.80958 5.38091C5.231 5.38091 4.76196 4.91187 4.76196 4.33329V2.23805C4.76196 1.65946 5.231 1.19043 5.80958 1.19043Z" stroke="#023E8A" stroke-width="1.3" stroke-linecap="round" stroke-linejoin="round"/>
<path d="M18.381 3.28564H6.85718" stroke="#023E8A" stroke-width="1.3" stroke-linecap="round" stroke-linejoin="round"/>
<path d="M4.762 3.28564H1.61914" stroke="#023E8A" stroke-width="1.3" stroke-linecap="round" stroke-linejoin="round"/>
<path fill-rule="evenodd" clip-rule="evenodd" d="M5.80958 11.6665C6.38817 11.6665 6.8572 12.1355 6.8572 12.7141V14.8094C6.8572 15.3879 6.38817 15.857 5.80958 15.857C5.231 15.857 4.76196 15.3879 4.76196 14.8094V12.7141C4.76196 12.1355 5.231 11.6665 5.80958 11.6665Z" stroke="#023E8A" stroke-width="1.3" stroke-linecap="round" stroke-linejoin="round"/>
<path d="M18.381 13.762H6.85718" stroke="#023E8A" stroke-width="1.3" stroke-linecap="round" stroke-linejoin="round"/>
<path d="M4.762 13.762H1.61914" stroke="#023E8A" stroke-width="1.3" stroke-linecap="round" stroke-linejoin="round"/>
<path fill-rule="evenodd" clip-rule="evenodd" d="M14.1907 6.42847C14.7693 6.42847 15.2383 6.8975 15.2383 7.47609V9.57132C15.2383 10.1499 14.7693 10.6189 14.1907 10.6189C13.6121 10.6189 13.1431 10.1499 13.1431 9.57132V7.47609C13.1431 6.8975 13.6121 6.42847 14.1907 6.42847Z" stroke="#023E8A" stroke-width="1.3" stroke-linecap="round" stroke-linejoin="round"/>
<path d="M13.143 8.52368H1.61914" stroke="#023E8A" stroke-width="1.3" stroke-linecap="round" stroke-linejoin="round"/>
<path d="M18.3811 8.52368H15.2383" stroke="#023E8A" stroke-width="1.3" stroke-linecap="round" stroke-linejoin="round"/>
</svg>
