<svg width="40" height="40" viewBox="0 0 40 40" fill="none" xmlns="http://www.w3.org/2000/svg">
<g clip-path="url(#clip0_0_1588)">
<path d="M15.3978 0C14.867 0 14.4368 0.430234 14.4368 0.961016V1.22883C14.4368 1.75961 14.867 2.18984 15.3978 2.18984C15.9286 2.18984 16.3588 1.75961 16.3588 1.22883V0.961016C16.3587 0.430234 15.9285 0 15.3978 0Z" fill="white"/>
<path d="M15.398 24.5013H14.4562V21.1244C14.4562 20.5936 14.0259 20.1634 13.4952 20.1634H11.9663V15.9005H15.3979C15.9287 15.9005 16.3589 15.4702 16.3589 14.9395V10.9023V3.65531C16.3589 3.12453 15.9287 2.6943 15.3979 2.6943C14.8671 2.6943 14.4369 3.12453 14.4369 3.65531V9.94149H11.9662V0.961016C11.9663 0.430234 11.536 0 11.0052 0C10.4745 0 10.0442 0.430234 10.0442 0.961016V9.94141H7.57267V0.961016C7.57267 0.430234 7.14243 0 6.61165 0C6.08087 0 5.65071 0.430234 5.65071 0.961016V10.9024V14.9395C5.65071 15.4703 6.08095 15.9005 6.61173 15.9005H10.0444V20.1634H8.51446C7.98368 20.1634 7.55345 20.5937 7.55345 21.1245V24.5013H6.61165C6.08087 24.5013 5.65063 24.9316 5.65063 25.4623C5.65063 25.9931 6.08087 26.4234 6.61165 26.4234H7.55345V39.0391C7.55345 39.5699 7.98368 40.0002 8.51446 40.0002H13.4952C14.026 40.0002 14.4563 39.5699 14.4563 39.0391V26.4232H15.3981C15.9288 26.4232 16.3591 25.993 16.3591 25.4622C16.3589 24.9315 15.9287 24.5013 15.398 24.5013ZM7.57267 13.9784V11.8633H14.437V13.9784H7.57267ZM12.5342 38.078H9.4754V26.4232H12.5342V38.078ZM12.5342 24.5013H9.4754V22.0853H12.5342V24.5013Z" fill="white"/>
<path d="M34.3494 14.9395V5.78125C34.3494 5.5418 34.2599 5.31086 34.0987 5.13391L29.7051 0.313594C29.5229 0.113906 29.2651 0 28.9948 0C28.7245 0 28.4667 0.113906 28.2846 0.313672L23.8919 5.13406C23.7306 5.31102 23.6412 5.54187 23.6412 5.78125V14.9395C23.6412 15.4702 24.0714 15.9005 24.6022 15.9005H28.0338V20.1634H26.5049C25.9742 20.1634 25.5439 20.5936 25.5439 21.1244V24.5012H24.6021C24.0713 24.5012 23.6411 24.9315 23.6411 25.4623C23.6411 25.993 24.0713 26.4233 24.6021 26.4233H25.5439V39.0391C25.5439 39.5698 25.9742 40.0001 26.5049 40.0001H31.4857C32.0165 40.0001 32.4467 39.5698 32.4467 39.0391V26.4232H33.3885C33.9193 26.4232 34.3496 25.993 34.3496 25.4622C34.3496 24.9314 33.9193 24.5012 33.3885 24.5012H32.4467V21.1243C32.4467 20.5935 32.0165 20.1633 31.4857 20.1633H29.9558V15.9004H33.3885C33.9192 15.9005 34.3494 15.4702 34.3494 14.9395ZM30.5246 38.078H27.4658V26.4232H30.5246V38.078ZM30.5246 22.0853V24.5012H27.4658V22.0853H30.5246ZM32.4274 13.9784H25.5631V6.15344L28.9949 2.38766L32.4274 6.15359L32.4274 13.9784Z" fill="white"/>
</g>
<defs>
<clipPath id="clip0_0_1588">
<rect width="40" height="40" fill="white"/>
</clipPath>
</defs>
</svg>
