<svg width="38" height="36" viewBox="0 0 38 36" fill="none" xmlns="http://www.w3.org/2000/svg">
<path d="M13.2577 3.42175C12.757 2.79587 12.3071 2.21682 11.9841 1.79201C11.8226 1.57968 11.6925 1.40537 11.6034 1.28278C11.5591 1.2217 11.5241 1.17235 11.5004 1.13717C11.4888 1.11999 11.4783 1.10392 11.4706 1.09066C11.4672 1.08476 11.4616 1.07496 11.4568 1.06391C11.4548 1.05929 11.4497 1.04701 11.4465 1.03093C11.4449 1.02307 11.4422 1.00698 11.4441 0.986726C11.4459 0.967096 11.4537 0.927958 11.4876 0.893981C11.5061 0.875481 11.5258 0.864873 11.5344 0.860439C11.5455 0.854705 11.5567 0.850014 11.5664 0.846259C11.5861 0.838698 11.6092 0.831428 11.6335 0.824509C11.6827 0.810522 11.7474 0.795081 11.8222 0.779129C11.972 0.747171 12.1699 0.711563 12.3829 0.679989C12.8639 0.599959 13.4986 0.568678 14.1161 0.588405C14.7313 0.60806 15.3428 0.678748 15.7751 0.808794C19.0459 1.67173 21.3581 4.9078 21.1027 8.23009C21.0709 8.65808 20.9762 9.24512 20.8949 9.53882L20.7894 9.94736L21.9273 11.3098C21.9274 11.3099 21.9275 11.31 21.9275 11.3101C22.5846 12.0923 26.2717 16.4981 30.115 21.107C30.3763 21.4195 30.6283 21.721 30.8716 22.012C34.2557 26.0599 35.931 28.0638 36.7585 29.2173C37.2022 29.8357 37.4132 30.2241 37.5094 30.562C37.5883 30.8387 37.5877 31.0782 37.5871 31.3568L13.2577 3.42175ZM13.2577 3.42175C13.2578 3.42179 13.2578 3.42183 13.2578 3.42188L15.0318 5.65078L14.5791 6.80463L14.5788 6.80522L14.1253 7.97552L13.2722 8.11771L13.2722 8.1177L13.27 8.11809C12.7574 8.21129 12.1517 8.30448 11.9189 8.33556L11.597 8.37271L9.82074 6.12577L9.82075 6.12577L9.82005 6.1249L7.9763 3.82802L7.82121 3.63482L7.7219 3.8618L7.50344 4.36113C7.50339 4.36125 7.50334 4.36136 7.50329 4.36147C6.13808 7.44142 6.54816 10.3971 8.65535 12.6799C9.99769 14.1341 11.7561 14.8834 13.8398 14.9312C13.84 14.9313 13.8401 14.9313 13.8403 14.9313L14.8499 14.9605L22.666 24.3305L22.6662 24.3307C23.1248 24.8787 23.5767 25.4188 24.0186 25.9469C25.6616 27.9105 27.165 29.7072 28.3518 31.1218C29.1048 32.0193 29.7305 32.7632 30.1836 33.2984C30.6319 33.8279 30.9178 34.161 30.9871 34.2305C32.8736 36.1649 36.0121 35.6411 37.2128 33.1911L37.2128 33.1909C37.3833 32.8422 37.4853 32.6237 37.5387 32.3932C37.5922 32.1618 37.5952 31.9255 37.5874 31.5446L13.2577 3.42175ZM9.67182 8.70317L8.59374 7.34866L8.58155 7.57421M9.67182 8.70317L11.2187 12.5313C9.57807 11.6719 8.3437 9.54692 8.42182 7.75005L8.44088 7.39747L8.58155 7.57421M9.67182 8.70317C10.8437 10.1719 10.8906 10.2188 11.1874 10.1719C11.3593 10.1407 12.3437 9.98442 13.4062 9.82817C14.4531 9.67192 15.3124 9.5313 15.3281 9.51567C15.3749 9.4688 16.9531 5.42192 16.9531 5.35942C16.9531 5.32817 16.4218 4.64067 15.7812 3.8438C15.2802 3.22346 14.8611 2.68509 14.6909 2.45123C14.7119 2.4529 14.7427 2.45704 14.7843 2.465C14.821 2.47203 14.8627 2.48133 14.9085 2.49264M9.67182 8.70317L16.4999 2.92192M8.58155 7.57421L8.57165 7.75734C8.5343 8.62075 8.81263 9.57263 9.30527 10.4166C9.79796 11.2607 10.4977 11.9843 11.2883 12.3984L11.2897 12.3992C11.8085 12.6779 12.1819 12.8389 12.5677 12.9303C12.9539 13.0217 13.3612 13.0453 13.9511 13.0376L13.9531 13.0375C14.5336 13.0375 15.1079 13.0075 15.2394 12.9927L15.2409 12.9918L15.2523 12.9854C15.2616 12.9803 15.2768 12.9726 15.296 12.9666C15.3955 12.9357 15.4796 12.9858 15.5447 13.0366C15.6787 13.1413 15.9317 13.4134 16.4867 14.0585C17.4864 15.2205 19.4992 17.6336 23.6358 22.593C24.1339 23.1902 24.6628 23.8244 25.2245 24.4977C27.9668 27.7712 29.7942 29.9462 30.9732 31.3203C31.5628 32.0076 31.9891 32.4932 32.286 32.8154C32.4346 32.9766 32.5494 33.0953 32.6351 33.1773C32.678 33.2183 32.7123 33.2488 32.7389 33.2704C32.7522 33.2811 32.7627 33.2889 32.7708 33.2944C32.7792 33.3001 32.783 33.302 32.7829 33.302L32.7858 33.3034C33.2853 33.5531 33.9595 33.6081 34.4293 33.423L34.4317 33.4221C35.4815 33.0284 36.0169 31.8478 35.6408 30.8498L35.7812 30.7969L35.641 30.8503C35.6388 30.8445 35.629 30.8244 35.6037 30.784C35.58 30.746 35.5467 30.6967 35.503 30.635C35.4157 30.5117 35.29 30.3437 35.1225 30.1272C34.7878 29.6944 34.2897 29.0721 33.6063 28.2335C32.2398 26.5565 30.1348 24.0181 27.1193 20.4088L27.2343 20.3125M8.58155 7.57421L9.55446 8.79658L9.55457 8.79672C10.1366 9.52625 10.4492 9.91559 10.6533 10.1136C10.7564 10.2136 10.8467 10.2802 10.9442 10.3115C11.0451 10.344 11.1345 10.3321 11.2108 10.3201L11.2108 10.3201L11.2143 10.3195C11.3833 10.2888 12.3652 10.1329 13.428 9.97658L13.4283 9.97653C13.9523 9.89833 14.4295 9.82401 14.778 9.76724C14.9521 9.73887 15.0946 9.71479 15.195 9.69675C15.2449 9.68777 15.2855 9.68009 15.3146 9.67401C15.3289 9.67103 15.3422 9.66806 15.3532 9.66521C15.3583 9.66387 15.3655 9.66189 15.373 9.65932C15.3766 9.65808 15.3829 9.65582 15.3901 9.65244L15.3905 9.65227C15.3946 9.65038 15.4148 9.64103 15.4341 9.62174C15.446 9.60983 15.4534 9.59836 15.4553 9.59546C15.4585 9.59059 15.461 9.58619 15.4626 9.58316C15.4661 9.57701 15.4692 9.5706 15.4719 9.56501C15.4775 9.55352 15.4841 9.53888 15.4914 9.5222C15.5062 9.48848 15.526 9.4414 15.55 9.38348C15.598 9.26738 15.6637 9.10455 15.7411 8.9109C15.8958 8.52345 16.0976 8.01085 16.2979 7.49797C16.4982 6.98507 16.697 6.47153 16.8459 6.08218C16.9203 5.88757 16.9823 5.7236 17.0258 5.60614C17.0475 5.54752 17.0649 5.4998 17.0769 5.4654C17.0829 5.44836 17.0879 5.43348 17.0916 5.42174C17.0934 5.41603 17.0954 5.40958 17.097 5.40331C17.0978 5.40023 17.0989 5.39575 17.1 5.39059L17.1 5.39037C17.1006 5.38718 17.1031 5.37482 17.1031 5.35942C17.1031 5.33604 17.0976 5.31813 17.0956 5.31182C17.0929 5.30337 17.0899 5.29653 17.088 5.29222C17.084 5.28355 17.0797 5.27588 17.0766 5.27049C17.07 5.25926 17.0618 5.24667 17.0533 5.23402C17.0358 5.20817 17.0112 5.17374 16.9809 5.13259C16.92 5.04987 16.8328 4.93502 16.726 4.79698C16.5124 4.52065 16.2189 4.14879 15.8981 3.74981L15.8979 3.74955C15.5703 3.34398 15.2781 2.97378 15.0679 2.7014C15.0075 2.62303 14.954 2.55297 14.9085 2.49264M14.9085 2.49264C15.0126 2.51833 15.1379 2.55444 15.2747 2.59805C15.6686 2.72355 16.1363 2.90409 16.431 3.05511M14.9085 2.49264C14.8749 2.44803 14.8456 2.40874 14.8212 2.37534C14.8026 2.34995 14.7872 2.32848 14.7749 2.31096C15.1418 2.37163 16.0275 2.67964 16.4999 2.92192M16.431 3.05511C18.723 4.25459 19.8183 7.06653 18.9523 9.52816L18.9524 9.52792L19.0937 9.57817M16.431 3.05511C16.4311 3.05521 16.4313 3.0553 16.4315 3.05539L16.4999 2.92192M16.431 3.05511C16.4308 3.05502 16.4306 3.05493 16.4304 3.05483L16.4999 2.92192M19.0937 9.57817L18.9522 9.52839L18.7024 10.231L18.6737 10.3118L18.7286 10.3775L27.1192 20.4087L27.2343 20.3125M19.0937 9.57817C19.9843 7.04692 18.8593 4.1563 16.4999 2.92192M19.0937 9.57817L18.8437 10.2813M27.2343 20.3125L18.8437 10.2813M27.2343 20.3125L18.8437 10.2813M18.8437 10.2813L16.4999 2.92192M14.6904 2.44139C14.6887 2.44226 14.687 2.44305 14.6855 2.44377L14.758 2.30828C14.7581 2.30936 14.7583 2.31047 14.7584 2.31161C14.7586 2.31312 14.7587 2.31469 14.7588 2.31629C14.7591 2.32014 14.7592 2.32411 14.7592 2.32817C14.7587 2.34907 14.7533 2.37236 14.7399 2.39448C14.7238 2.42083 14.703 2.4348 14.6904 2.44139Z" fill="white" stroke="white" stroke-width="0.3"/>
<mask id="path-2-outside-1_0_1571" maskUnits="userSpaceOnUse" x="-0.455566" y="14.9414" width="19" height="19" fill="black">
<rect fill="white" x="-0.455566" y="14.9414" width="19" height="19"/>
<path d="M8.3124 16.1405C7.79677 16.4062 7.5624 16.8124 7.48427 17.6093L7.42177 18.1718L6.98427 18.2968C6.5624 18.4218 6.54677 18.4218 6.2499 18.078C5.6874 17.453 4.9374 17.2499 4.29677 17.5937C4.1249 17.6874 3.67177 18.0624 3.29677 18.4062C2.23427 19.4062 2.1249 20.1093 2.89052 20.9843L3.28115 21.4218L3.09365 21.8593L2.90615 22.2968L2.39052 22.2499C1.96865 22.203 1.76552 22.2499 1.42177 22.4374C0.812395 22.7655 0.67177 23.1093 0.57802 24.328C0.51552 25.2187 0.531145 25.4062 0.70302 25.7812C0.95302 26.3437 1.42177 26.6405 2.0624 26.6405C2.65615 26.6405 2.73427 26.6874 2.89052 27.1562C3.01552 27.5468 3.01552 27.5468 2.60927 27.9374C1.65615 28.9218 1.79677 29.6874 3.20302 31.0312C4.14052 31.9218 4.79677 31.953 5.65615 31.1718L6.04677 30.8281L6.45302 31.0155L6.85927 31.2187L6.8749 31.8749C6.89052 32.5937 7.04677 32.9218 7.60927 33.2968C7.84365 33.4687 8.1249 33.5156 8.96865 33.5624C9.95302 33.6249 10.0624 33.6093 10.4686 33.4218C10.9843 33.1405 11.2655 32.6874 11.2655 32.0624C11.2655 31.4999 11.328 31.4218 11.828 31.2812C12.2343 31.1562 12.2343 31.1562 12.4999 31.4687C12.8124 31.8437 13.4061 32.1718 13.7811 32.1718C14.2499 32.1718 14.8593 31.7968 15.5624 31.0624C16.328 30.2656 16.4686 29.8906 16.2655 29.2656C16.203 29.0624 15.9843 28.7343 15.7968 28.5155L15.453 28.1249L15.6561 27.7187L15.8593 27.3124H16.5155C17.2343 27.3124 17.5468 27.1405 17.9218 26.5937C18.0936 26.3593 18.1405 26.0781 18.1874 25.2343C18.2499 24.2499 18.2343 24.1405 18.0468 23.7343C17.7655 23.2187 17.3593 22.9687 16.578 22.8906L16.0155 22.828L15.8905 22.3906L15.7655 21.9531L16.1561 21.578C16.6718 21.0937 16.8436 20.5312 16.6718 19.9687C16.4999 19.4218 15.203 18.0468 14.703 17.9062C14.1561 17.7343 13.703 17.8593 13.203 18.3124L12.7655 18.703L12.2968 18.4999C11.8436 18.2968 11.828 18.2968 11.9061 17.9218C12.0311 17.203 11.6718 16.4999 11.0155 16.1562C10.9061 16.1093 10.3593 16.0312 9.78115 15.9843C8.82802 15.9062 8.71865 15.9218 8.3124 16.1405ZM10.2186 17.5468C10.3436 17.5937 10.3593 17.7499 10.3124 18.5156L10.2499 19.4218L10.828 19.5937C11.4061 19.7655 12.0311 20.0624 12.6093 20.4218L12.9218 20.6249L13.578 20.0155C14.3124 19.328 14.328 19.3281 14.8593 19.9687L15.1561 20.3437L14.4843 20.9687L13.8124 21.5937L14.1718 22.328C14.3749 22.7187 14.578 23.328 14.6561 23.6874L14.7811 24.328L15.6874 24.3593C16.7343 24.3905 16.7343 24.4062 16.6249 25.2187L16.5624 25.7499L15.6561 25.6874L14.7499 25.6249L14.5311 26.328C14.4061 26.7187 14.1405 27.2968 13.9218 27.6249C13.4843 28.2968 13.4843 28.3124 14.2343 29.0468C14.5155 29.3124 14.7343 29.5937 14.7343 29.6405C14.7343 29.703 14.5311 29.9218 14.2655 30.1249L13.8124 30.4999L13.1874 29.828L12.5624 29.1718L11.8436 29.5155C11.453 29.7187 10.8436 29.9218 10.4843 29.9999L9.84365 30.1249L9.8124 31.0312C9.78115 32.078 9.76552 32.0937 8.95302 31.9843L8.40615 31.9218L8.46865 31.0155L8.53115 30.1093L7.85927 29.9062C7.48427 29.7812 6.8749 29.5155 6.51552 29.2968L5.84365 28.8905L5.21865 29.4843C4.8749 29.8124 4.54677 30.078 4.4999 30.078C4.4374 30.078 4.21865 29.8749 4.01552 29.6249L3.65615 29.1718L4.3124 28.5468L4.96865 27.9218L4.6874 27.3593C4.4374 26.8437 4.21865 26.203 4.04677 25.453C3.98427 25.1874 3.98427 25.1874 3.07802 25.1562L2.17177 25.1249L2.14052 24.7968C2.1249 24.6093 2.12489 24.3124 2.17177 24.1249L2.23427 23.7968L3.14052 23.8593L4.04677 23.9218L4.21865 23.3593C4.40615 22.7656 4.70302 22.1249 5.07802 21.578L5.28115 21.2499L4.6874 20.6249C4.35927 20.2812 4.09365 19.9531 4.09365 19.8906C4.09365 19.7656 4.84365 19.078 4.96865 19.078C5.01552 19.078 5.32802 19.3749 5.64052 19.7343L6.23427 20.3749L6.8124 20.0781C7.32802 19.8281 7.98427 19.6093 8.73427 19.4374L8.9999 19.3749V18.4374V17.4999H9.53115C9.82802 17.4999 10.1249 17.5155 10.2186 17.5468Z"/>
</mask>
<path d="M8.3124 16.1405C7.79677 16.4062 7.5624 16.8124 7.48427 17.6093L7.42177 18.1718L6.98427 18.2968C6.5624 18.4218 6.54677 18.4218 6.2499 18.078C5.6874 17.453 4.9374 17.2499 4.29677 17.5937C4.1249 17.6874 3.67177 18.0624 3.29677 18.4062C2.23427 19.4062 2.1249 20.1093 2.89052 20.9843L3.28115 21.4218L3.09365 21.8593L2.90615 22.2968L2.39052 22.2499C1.96865 22.203 1.76552 22.2499 1.42177 22.4374C0.812395 22.7655 0.67177 23.1093 0.57802 24.328C0.51552 25.2187 0.531145 25.4062 0.70302 25.7812C0.95302 26.3437 1.42177 26.6405 2.0624 26.6405C2.65615 26.6405 2.73427 26.6874 2.89052 27.1562C3.01552 27.5468 3.01552 27.5468 2.60927 27.9374C1.65615 28.9218 1.79677 29.6874 3.20302 31.0312C4.14052 31.9218 4.79677 31.953 5.65615 31.1718L6.04677 30.8281L6.45302 31.0155L6.85927 31.2187L6.8749 31.8749C6.89052 32.5937 7.04677 32.9218 7.60927 33.2968C7.84365 33.4687 8.1249 33.5156 8.96865 33.5624C9.95302 33.6249 10.0624 33.6093 10.4686 33.4218C10.9843 33.1405 11.2655 32.6874 11.2655 32.0624C11.2655 31.4999 11.328 31.4218 11.828 31.2812C12.2343 31.1562 12.2343 31.1562 12.4999 31.4687C12.8124 31.8437 13.4061 32.1718 13.7811 32.1718C14.2499 32.1718 14.8593 31.7968 15.5624 31.0624C16.328 30.2656 16.4686 29.8906 16.2655 29.2656C16.203 29.0624 15.9843 28.7343 15.7968 28.5155L15.453 28.1249L15.6561 27.7187L15.8593 27.3124H16.5155C17.2343 27.3124 17.5468 27.1405 17.9218 26.5937C18.0936 26.3593 18.1405 26.0781 18.1874 25.2343C18.2499 24.2499 18.2343 24.1405 18.0468 23.7343C17.7655 23.2187 17.3593 22.9687 16.578 22.8906L16.0155 22.828L15.8905 22.3906L15.7655 21.9531L16.1561 21.578C16.6718 21.0937 16.8436 20.5312 16.6718 19.9687C16.4999 19.4218 15.203 18.0468 14.703 17.9062C14.1561 17.7343 13.703 17.8593 13.203 18.3124L12.7655 18.703L12.2968 18.4999C11.8436 18.2968 11.828 18.2968 11.9061 17.9218C12.0311 17.203 11.6718 16.4999 11.0155 16.1562C10.9061 16.1093 10.3593 16.0312 9.78115 15.9843C8.82802 15.9062 8.71865 15.9218 8.3124 16.1405ZM10.2186 17.5468C10.3436 17.5937 10.3593 17.7499 10.3124 18.5156L10.2499 19.4218L10.828 19.5937C11.4061 19.7655 12.0311 20.0624 12.6093 20.4218L12.9218 20.6249L13.578 20.0155C14.3124 19.328 14.328 19.3281 14.8593 19.9687L15.1561 20.3437L14.4843 20.9687L13.8124 21.5937L14.1718 22.328C14.3749 22.7187 14.578 23.328 14.6561 23.6874L14.7811 24.328L15.6874 24.3593C16.7343 24.3905 16.7343 24.4062 16.6249 25.2187L16.5624 25.7499L15.6561 25.6874L14.7499 25.6249L14.5311 26.328C14.4061 26.7187 14.1405 27.2968 13.9218 27.6249C13.4843 28.2968 13.4843 28.3124 14.2343 29.0468C14.5155 29.3124 14.7343 29.5937 14.7343 29.6405C14.7343 29.703 14.5311 29.9218 14.2655 30.1249L13.8124 30.4999L13.1874 29.828L12.5624 29.1718L11.8436 29.5155C11.453 29.7187 10.8436 29.9218 10.4843 29.9999L9.84365 30.1249L9.8124 31.0312C9.78115 32.078 9.76552 32.0937 8.95302 31.9843L8.40615 31.9218L8.46865 31.0155L8.53115 30.1093L7.85927 29.9062C7.48427 29.7812 6.8749 29.5155 6.51552 29.2968L5.84365 28.8905L5.21865 29.4843C4.8749 29.8124 4.54677 30.078 4.4999 30.078C4.4374 30.078 4.21865 29.8749 4.01552 29.6249L3.65615 29.1718L4.3124 28.5468L4.96865 27.9218L4.6874 27.3593C4.4374 26.8437 4.21865 26.203 4.04677 25.453C3.98427 25.1874 3.98427 25.1874 3.07802 25.1562L2.17177 25.1249L2.14052 24.7968C2.1249 24.6093 2.12489 24.3124 2.17177 24.1249L2.23427 23.7968L3.14052 23.8593L4.04677 23.9218L4.21865 23.3593C4.40615 22.7656 4.70302 22.1249 5.07802 21.578L5.28115 21.2499L4.6874 20.6249C4.35927 20.2812 4.09365 19.9531 4.09365 19.8906C4.09365 19.7656 4.84365 19.078 4.96865 19.078C5.01552 19.078 5.32802 19.3749 5.64052 19.7343L6.23427 20.3749L6.8124 20.0781C7.32802 19.8281 7.98427 19.6093 8.73427 19.4374L8.9999 19.3749V18.4374V17.4999H9.53115C9.82802 17.4999 10.1249 17.5155 10.2186 17.5468Z" fill="white"/>
<path d="M8.3124 16.1405C7.79677 16.4062 7.5624 16.8124 7.48427 17.6093L7.42177 18.1718L6.98427 18.2968C6.5624 18.4218 6.54677 18.4218 6.2499 18.078C5.6874 17.453 4.9374 17.2499 4.29677 17.5937C4.1249 17.6874 3.67177 18.0624 3.29677 18.4062C2.23427 19.4062 2.1249 20.1093 2.89052 20.9843L3.28115 21.4218L3.09365 21.8593L2.90615 22.2968L2.39052 22.2499C1.96865 22.203 1.76552 22.2499 1.42177 22.4374C0.812395 22.7655 0.67177 23.1093 0.57802 24.328C0.51552 25.2187 0.531145 25.4062 0.70302 25.7812C0.95302 26.3437 1.42177 26.6405 2.0624 26.6405C2.65615 26.6405 2.73427 26.6874 2.89052 27.1562C3.01552 27.5468 3.01552 27.5468 2.60927 27.9374C1.65615 28.9218 1.79677 29.6874 3.20302 31.0312C4.14052 31.9218 4.79677 31.953 5.65615 31.1718L6.04677 30.8281L6.45302 31.0155L6.85927 31.2187L6.8749 31.8749C6.89052 32.5937 7.04677 32.9218 7.60927 33.2968C7.84365 33.4687 8.1249 33.5156 8.96865 33.5624C9.95302 33.6249 10.0624 33.6093 10.4686 33.4218C10.9843 33.1405 11.2655 32.6874 11.2655 32.0624C11.2655 31.4999 11.328 31.4218 11.828 31.2812C12.2343 31.1562 12.2343 31.1562 12.4999 31.4687C12.8124 31.8437 13.4061 32.1718 13.7811 32.1718C14.2499 32.1718 14.8593 31.7968 15.5624 31.0624C16.328 30.2656 16.4686 29.8906 16.2655 29.2656C16.203 29.0624 15.9843 28.7343 15.7968 28.5155L15.453 28.1249L15.6561 27.7187L15.8593 27.3124H16.5155C17.2343 27.3124 17.5468 27.1405 17.9218 26.5937C18.0936 26.3593 18.1405 26.0781 18.1874 25.2343C18.2499 24.2499 18.2343 24.1405 18.0468 23.7343C17.7655 23.2187 17.3593 22.9687 16.578 22.8906L16.0155 22.828L15.8905 22.3906L15.7655 21.9531L16.1561 21.578C16.6718 21.0937 16.8436 20.5312 16.6718 19.9687C16.4999 19.4218 15.203 18.0468 14.703 17.9062C14.1561 17.7343 13.703 17.8593 13.203 18.3124L12.7655 18.703L12.2968 18.4999C11.8436 18.2968 11.828 18.2968 11.9061 17.9218C12.0311 17.203 11.6718 16.4999 11.0155 16.1562C10.9061 16.1093 10.3593 16.0312 9.78115 15.9843C8.82802 15.9062 8.71865 15.9218 8.3124 16.1405ZM10.2186 17.5468C10.3436 17.5937 10.3593 17.7499 10.3124 18.5156L10.2499 19.4218L10.828 19.5937C11.4061 19.7655 12.0311 20.0624 12.6093 20.4218L12.9218 20.6249L13.578 20.0155C14.3124 19.328 14.328 19.3281 14.8593 19.9687L15.1561 20.3437L14.4843 20.9687L13.8124 21.5937L14.1718 22.328C14.3749 22.7187 14.578 23.328 14.6561 23.6874L14.7811 24.328L15.6874 24.3593C16.7343 24.3905 16.7343 24.4062 16.6249 25.2187L16.5624 25.7499L15.6561 25.6874L14.7499 25.6249L14.5311 26.328C14.4061 26.7187 14.1405 27.2968 13.9218 27.6249C13.4843 28.2968 13.4843 28.3124 14.2343 29.0468C14.5155 29.3124 14.7343 29.5937 14.7343 29.6405C14.7343 29.703 14.5311 29.9218 14.2655 30.1249L13.8124 30.4999L13.1874 29.828L12.5624 29.1718L11.8436 29.5155C11.453 29.7187 10.8436 29.9218 10.4843 29.9999L9.84365 30.1249L9.8124 31.0312C9.78115 32.078 9.76552 32.0937 8.95302 31.9843L8.40615 31.9218L8.46865 31.0155L8.53115 30.1093L7.85927 29.9062C7.48427 29.7812 6.8749 29.5155 6.51552 29.2968L5.84365 28.8905L5.21865 29.4843C4.8749 29.8124 4.54677 30.078 4.4999 30.078C4.4374 30.078 4.21865 29.8749 4.01552 29.6249L3.65615 29.1718L4.3124 28.5468L4.96865 27.9218L4.6874 27.3593C4.4374 26.8437 4.21865 26.203 4.04677 25.453C3.98427 25.1874 3.98427 25.1874 3.07802 25.1562L2.17177 25.1249L2.14052 24.7968C2.1249 24.6093 2.12489 24.3124 2.17177 24.1249L2.23427 23.7968L3.14052 23.8593L4.04677 23.9218L4.21865 23.3593C4.40615 22.7656 4.70302 22.1249 5.07802 21.578L5.28115 21.2499L4.6874 20.6249C4.35927 20.2812 4.09365 19.9531 4.09365 19.8906C4.09365 19.7656 4.84365 19.078 4.96865 19.078C5.01552 19.078 5.32802 19.3749 5.64052 19.7343L6.23427 20.3749L6.8124 20.0781C7.32802 19.8281 7.98427 19.6093 8.73427 19.4374L8.9999 19.3749V18.4374V17.4999H9.53115C9.82802 17.4999 10.1249 17.5155 10.2186 17.5468Z" stroke="white" stroke-width="0.2" mask="url(#path-2-outside-1_0_1571)"/>
<path d="M9.99978 20.9376L10.0078 20.8882C9.97864 20.8835 9.95061 20.8789 9.92367 20.8745C9.59984 20.8214 9.43271 20.794 9.27399 20.7978C9.11775 20.8014 8.96955 20.8353 8.68927 20.8993C8.6604 20.9059 8.63012 20.9128 8.59829 20.92C7.00042 21.2682 5.8293 22.487 5.52877 24.1002C5.21175 25.7804 6.17809 27.5674 7.79072 28.3264C8.0346 28.4444 8.20747 28.5131 8.43687 28.5514C8.66424 28.5893 8.94566 28.597 9.40603 28.597C9.88902 28.597 10.1635 28.5932 10.3935 28.5512C10.6255 28.5089 10.8106 28.4279 11.1154 28.2794L11.1159 28.2792C11.9071 27.8836 12.6025 27.1723 12.9823 26.3812C13.1004 26.1372 13.1691 25.9643 13.2073 25.7349C13.2452 25.5075 13.2529 25.2261 13.2529 24.7657C13.2529 24.3053 13.2452 24.0278 13.2073 23.8023C13.1691 23.5749 13.1004 23.4021 12.9826 23.1508C12.4288 21.9642 11.29 21.094 10.0077 20.8882L9.99978 20.9376ZM9.99978 20.9376C9.60086 20.8725 9.42676 20.8413 9.25425 20.8484C9.09567 20.855 8.93844 20.894 8.60915 20.9688C7.03103 21.3126 5.87478 22.5157 5.5779 24.1095L9.99978 20.9376ZM8.94802 26.9825L8.94775 26.9824C8.30554 26.8448 7.73922 26.4318 7.40242 25.85L7.40241 25.85C6.79167 24.7965 7.20446 23.3281 8.27289 22.7476C8.97699 22.3958 9.84912 22.4117 10.5211 22.8087C11.0561 23.1298 11.4695 23.6962 11.6072 24.3233C11.9431 25.8657 10.475 27.3184 8.94802 26.9825Z" fill="white" stroke="white" stroke-width="0.1"/>
</svg>
