<svg width="40" height="40" viewBox="0 0 40 40" fill="none" xmlns="http://www.w3.org/2000/svg">
<path d="M31.6666 33.3334H8.33325C5.57659 33.3334 3.33325 31.0901 3.33325 28.3334V15.0001C3.33325 12.2434 5.57659 10.0001 8.33325 10.0001H10.9766L12.6433 8.33341C13.6083 7.36841 15.3033 6.66675 16.6666 6.66675H23.3333C24.6966 6.66675 26.3916 7.36841 27.3566 8.33341L29.0233 10.0001H31.6666C34.4233 10.0001 36.6666 12.2434 36.6666 15.0001V28.3334C36.6666 31.0901 34.4233 33.3334 31.6666 33.3334ZM8.33325 13.3334C7.89122 13.3334 7.4673 13.509 7.15474 13.8216C6.84218 14.1341 6.66659 14.5581 6.66659 15.0001V28.3334C6.66659 28.7754 6.84218 29.1994 7.15474 29.5119C7.4673 29.8245 7.89122 30.0001 8.33325 30.0001H31.6666C32.1086 30.0001 32.5325 29.8245 32.8451 29.5119C33.1577 29.1994 33.3333 28.7754 33.3333 28.3334V15.0001C33.3333 14.5581 33.1577 14.1341 32.8451 13.8216C32.5325 13.509 32.1086 13.3334 31.6666 13.3334H28.3333C27.8913 13.3333 27.4674 13.1577 27.1549 12.8451L24.9999 10.6901C24.6649 10.3551 23.8083 10.0001 23.3333 10.0001H16.6666C16.1916 10.0001 15.3349 10.3551 14.9999 10.6901L12.8449 12.8451C12.5324 13.1577 12.1086 13.3333 11.6666 13.3334H8.33325ZM19.9999 16.6667C22.2983 16.6667 24.1666 18.5351 24.1666 20.8334C24.1666 23.1317 22.2983 25.0001 19.9999 25.0001C17.7016 25.0001 15.8333 23.1317 15.8333 20.8334C15.8333 18.5351 17.7016 16.6667 19.9999 16.6667ZM19.9999 15.0001C18.4528 15.0001 16.9691 15.6147 15.8751 16.7086C14.7812 17.8026 14.1666 19.2863 14.1666 20.8334C14.1666 22.3805 14.7812 23.8642 15.8751 24.9582C16.9691 26.0522 18.4528 26.6667 19.9999 26.6667C21.547 26.6667 23.0307 26.0522 24.1247 24.9582C25.2187 23.8642 25.8333 22.3805 25.8333 20.8334C25.8333 19.2863 25.2187 17.8026 24.1247 16.7086C23.0307 15.6147 21.547 15.0001 19.9999 15.0001ZM29.9999 14.4984C29.7154 14.4984 29.4336 14.5545 29.1708 14.6633C28.9079 14.7722 28.669 14.9318 28.4679 15.133C28.2667 15.3342 28.1071 15.5731 27.9982 15.8359C27.8893 16.0988 27.8333 16.3805 27.8333 16.6651C27.8333 16.9496 27.8893 17.2314 27.9982 17.4942C28.1071 17.7571 28.2667 17.996 28.4679 18.1971C28.669 18.3983 28.9079 18.5579 29.1708 18.6668C29.4336 18.7757 29.7154 18.8317 29.9999 18.8317C30.5746 18.8317 31.1257 18.6035 31.532 18.1971C31.9383 17.7908 32.1666 17.2397 32.1666 16.6651C32.1666 16.0904 31.9383 15.5393 31.532 15.133C31.1257 14.7267 30.5746 14.4984 29.9999 14.4984Z" fill="white"/>
</svg>
