<svg width="31" height="30" viewBox="0 0 31 30" fill="none" xmlns="http://www.w3.org/2000/svg">
<g clip-path="url(#clip0_0_745)">
<path d="M26.0625 20.5V20.25H25.8125H23.3125V17.75V17.5H23.0625H21.6875H21.4375V17.75V20.25H18.9375H18.6875V20.5V21.875V22.125H18.9375H21.4375V24.625V24.875H21.6875H23.0625H23.3125V24.625V22.125H25.8125H26.0625V21.875V20.5Z" fill="#F5F9FE" stroke="#F5F9FE" stroke-width="0.5"/>
<path d="M21.6882 7.1875H21.6875H19.875L19.875 6.75L19.875 6.74925C19.8737 6.31887 19.7022 5.90648 19.3978 5.60215C19.0935 5.29783 18.6811 5.12629 18.2507 5.125H18.25L12.75 5.125L12.7493 5.125C12.3189 5.12629 11.9065 5.29783 11.6022 5.60215C11.2978 5.90648 11.1263 6.31887 11.125 6.74925V6.75V7.1875L9.3125 7.1875L9.31175 7.1875C8.88137 7.18879 8.46898 7.36033 8.16465 7.66465C7.86033 7.96898 7.68879 8.38137 7.6875 8.81175V8.8125L7.6875 23.25L7.6875 23.2507C7.68879 23.6811 7.86033 24.0935 8.16465 24.3978C8.46898 24.7022 8.88137 24.8737 9.31175 24.875H9.3125H16.1875H16.4375V24.625V23.25V23H16.1875H9.5625V9.0625H11.125V10.875V11.125H11.375H19.625H19.875V10.875V9.0625H21.4375V15V15.25H21.6875H23.0625H23.3125V15L23.3125 8.8125L23.3125 8.81175C23.3112 8.38137 23.1397 7.96898 22.8353 7.66465C22.531 7.36033 22.1186 7.18879 21.6882 7.1875ZM18 9.25H13V7H18V9.25Z" fill="#F5F9FE" stroke="#F5F9FE" stroke-width="0.5"/>
</g>
<defs>
<clipPath id="clip0_0_745">
<rect width="22" height="22" fill="white" transform="translate(4.5 4)"/>
</clipPath>
</defs>
</svg>
