<svg width="22" height="22" viewBox="0 0 22 22" fill="none" xmlns="http://www.w3.org/2000/svg">
<path d="M10.0833 19.0208C5.15159 19.0208 1.14575 15.0149 1.14575 10.0833C1.14575 5.15159 5.15159 1.14575 10.0833 1.14575C15.0149 1.14575 19.0208 5.15159 19.0208 10.0833C19.0208 15.0149 15.0149 19.0208 10.0833 19.0208ZM10.0833 2.52075C5.91242 2.52075 2.52075 5.91242 2.52075 10.0833C2.52075 14.2541 5.91242 17.6458 10.0833 17.6458C14.2541 17.6458 17.6458 14.2541 17.6458 10.0833C17.6458 5.91242 14.2541 2.52075 10.0833 2.52075Z" fill="#1F2852"/>
<path d="M18.4801 20.8908C18.4067 20.8908 18.3334 20.8817 18.2692 20.8725C17.8384 20.8175 17.0592 20.5242 16.6192 19.2133C16.3901 18.5258 16.4726 17.8383 16.8484 17.3158C17.2242 16.7933 17.8567 16.5 18.5809 16.5C19.5159 16.5 20.2492 16.8575 20.5792 17.49C20.9092 18.1225 20.8176 18.9292 20.2951 19.7083C19.6442 20.6892 18.9384 20.8908 18.4801 20.8908ZM17.9301 18.7825C18.0859 19.2592 18.3059 19.4975 18.4526 19.5158C18.5992 19.5342 18.8742 19.36 19.1584 18.9475C19.4242 18.5533 19.4426 18.2692 19.3784 18.1408C19.3142 18.0125 19.0576 17.875 18.5809 17.875C18.2967 17.875 18.0859 17.9667 17.9667 18.1225C17.8567 18.2783 17.8384 18.5167 17.9301 18.7825Z" fill="#1F2852"/>
</svg>
